<?xml version="1.0" encoding="utf-8"?>
<!-- Generator: Adobe Illustrator 16.0.0, SVG Export Plug-In . SVG Version: 6.00 Build 0)  -->
<!DOCTYPE svg PUBLIC "-//W3C//DTD SVG 1.1//EN" "http://www.w3.org/Graphics/SVG/1.1/DTD/svg11.dtd">
<svg version="1.1" id="Layer_1" xmlns="http://www.w3.org/2000/svg" xmlns:xlink="http://www.w3.org/1999/xlink" x="0px" y="0px"
	 width="612px" height="792px" viewBox="0 0 612 792" enable-background="new 0 0 612 792" xml:space="preserve">
<path id="Ellipse" fill="#010101" d="M152.51,158.05c-0.94-69.112,53.359-124.613,120.66-125.047
	c67.302-0.435,120.559,56.371,110.146,95.892c-6.927,39.424-131.977,43.09-161.035,44.336c-3.874,30.132-5.602,62.394-18.682,96.31
	C203.6,247.722,152.51,229.287,152.51,158.05z"/>
<path fill="#010101" d="M474.149,761H317.521l-6.394-84.707h-43.952L259.985,761H134.522l61.533-468.285h70.322
	c0.131-0.019-24.818,176.459-24.772,176.605c0.324,1.052,37.05,51.193,37.559,51.145c0.546-0.054,39.691-50.882,39.955-51.145
	c0.244-0.241-29.062-176.605-26.143-176.605c40.749,0,78.886,0,78.886,0s63.97,427.27,63.929,427.53
	c-0.022,0.145,38.18-0.104,38.358,0C474.775,720.607,474.149,761,474.149,761z"/>
</svg>
